# xmcd
#
# Track frame offsets:
#	150
#	16507
#	28510
#	39572
#	57466
#	85123
#	99228
#	116867
#	134980
#	150462
#
# Disc length: 2360 seconds
#
# Revision: 0
# Processed by: cddbd v1.4PL0 Copyright (c) Steve Scherf et al.
# Submitted via: dBpowerAMP V4.0
#
DISCID=7909360a
DTITLE=Janet Ryan and Straight Up - Wrapped Up In Blue
DYEAR=2002
DGENRE=Blues
TTITLE0=Take Your Shoes Off
TTITLE1=Baby's Gonna Leave
TTITLE2=Life Is A River
TTITLE3=Love Has Left The Building
TTITLE4=Appreciate Me
TTITLE5=All My Kisses
TTITLE6=Cool Your Engine
TTITLE7=6 O'Clock Blues
TTITLE8=The Lust
TTITLE9=Uphill Climb
EXTD=
EXTT0=
EXTT1=
EXTT2=
EXTT3=
EXTT4=
EXTT5=
EXTT6=
EXTT7=
EXTT8=
EXTT9=
PLAYORDER=
